<svg width="182" height="183" viewBox="0 0 182 183" fill="none" xmlns="http://www.w3.org/2000/svg">
<g filter="url(#filter0_d)">
<path d="M84.2812 108.208H97.4476V138.082H84.2812V108.208Z" fill="white"/>
<path d="M84.2812 108.208H91.1024V138.082H84.2812V108.208Z" fill="#D9C5F2"/>
<path d="M74.9454 102.854C63.8456 102.854 54.7553 99.2499 47.9264 92.1409C34.2083 77.8607 34.9799 54.5928 35.0196 53.6091C35.1256 50.9616 37.3034 48.8701 39.9527 48.8701H60.5807C63.3076 48.8701 65.5181 51.0814 65.5181 53.8074C65.5181 56.5343 63.3076 58.7457 60.5807 58.7457H45.0435C45.5444 65.3763 47.5178 77.4874 55.0769 85.3301C60.0376 90.477 66.5371 92.9789 74.9454 92.9789C77.6723 92.9789 79.8836 95.1893 79.8836 97.9162C79.8836 100.643 77.6723 102.854 74.9454 102.854Z" fill="white"/>
<path d="M106.783 102.854C117.883 102.854 126.974 99.2499 133.802 92.1409C147.519 77.8607 146.748 54.5928 146.709 53.6091C146.603 50.9616 144.425 48.8701 141.776 48.8701H121.148C118.421 48.8701 116.21 51.0814 116.21 53.8074C116.21 56.5343 118.421 58.7457 121.148 58.7457H136.685C136.184 65.3763 134.211 77.4874 126.651 85.3301C121.691 90.477 115.191 92.9789 106.783 92.9789C104.056 92.9789 101.845 95.1893 101.845 97.9162C101.845 100.643 104.056 102.854 106.783 102.854Z" fill="white"/>
<path d="M126.651 85.3311C121.691 90.4771 115.191 92.979 106.783 92.979C104.055 92.979 101.845 95.1894 101.845 97.9172C101.845 100.644 104.056 102.855 106.783 102.855C111.421 102.855 115.708 102.223 119.626 100.971C120.715 99.3026 121.744 97.5836 122.708 95.8136C124.774 92.0229 126.549 88.0036 128.025 83.7861C127.589 84.3163 127.132 84.8319 126.651 85.3311Z" fill="#D9C5F2"/>
<path d="M116.211 53.8075C116.211 56.5344 118.421 58.7457 121.148 58.7457H133.052C133.313 54.9231 133.329 51.5651 133.249 48.8701H121.148C118.421 48.8701 116.211 51.0806 116.211 53.8075Z" fill="#D9C5F2"/>
<path d="M74.945 92.979C66.5367 92.979 60.0371 90.4771 55.0765 85.3302C54.5971 84.8319 54.1394 84.3163 53.7031 83.7861C55.1791 88.0028 56.9542 92.0229 59.0198 95.8136C59.9837 97.5836 61.0131 99.3026 62.1019 100.971C66.0203 102.223 70.3068 102.854 74.945 102.854C77.6719 102.854 79.8824 100.643 79.8824 97.9163C79.8824 95.1894 77.6719 92.979 74.945 92.979Z" fill="#D9C5F2"/>
<path d="M65.519 53.8075C65.519 51.0806 63.3077 48.8701 60.5816 48.8701H48.48C48.3998 51.5651 48.4162 54.9231 48.6774 58.7457H60.5816C63.3077 58.7457 65.519 56.5344 65.519 53.8075Z" fill="#D9C5F2"/>
<path d="M84.2816 114.594C49.1699 88.9192 55.7462 42.8352 55.7462 42.8352L90.8648 36.9176L125.983 42.8361C125.983 42.8361 132.56 88.9192 97.4479 114.595H84.2816V114.594Z" fill="#770FFE"/>
<path d="M62.5673 42.8352L94.2753 37.4926L90.8648 36.9176L55.7462 42.8352C55.7462 42.8352 49.1699 88.9192 84.2816 114.594H91.1027C55.991 88.9192 62.5673 42.8352 62.5673 42.8352Z" fill="#9444FD"/>
<path d="M97.4471 123.145H84.2808C73.5275 123.145 73.3008 132.165 73.3008 132.165L90.864 135.149L108.427 132.165C108.427 132.165 108.2 123.145 97.4471 123.145Z" fill="#770FFE"/>
<path d="M80.1219 132.165C80.1219 132.165 80.3486 123.145 91.1019 123.145H84.2808C73.5275 123.145 73.3008 132.165 73.3008 132.165L90.864 135.149L94.2745 134.569L80.1219 132.165Z" fill="#9444FD"/>
<path d="M125.983 31H55.7457C52.4774 31 49.8281 33.6493 49.8281 36.9176C49.8281 40.1859 52.4774 42.8361 55.7457 42.8361H125.983C129.251 42.8361 131.901 40.1859 131.901 36.9176C131.901 33.6493 129.251 31 125.983 31Z" fill="#FE650F"/>
<path d="M56.6492 36.9176C56.6492 33.6493 59.2985 31 62.5669 31H55.7457C52.4774 31 49.8281 33.6493 49.8281 36.9176C49.8281 40.1859 52.4774 42.8361 55.7457 42.8361H62.5669C59.2985 42.8352 56.6492 40.1859 56.6492 36.9176Z" fill="#C84F0C"/>
<path d="M108.427 132.165H73.3004C70.0321 132.165 67.3828 134.814 67.3828 138.082C67.3828 141.351 70.0321 144 73.3004 144H108.427C111.695 144 114.344 141.351 114.344 138.082C114.344 134.814 111.695 132.165 108.427 132.165Z" fill="white"/>
<path d="M74.2039 138.082C74.2039 134.814 76.8532 132.164 80.1215 132.164H73.3004C70.0321 132.164 67.3828 134.814 67.3828 138.082C67.3828 141.351 70.0321 144 73.3004 144H80.1215C76.8532 144 74.2039 141.351 74.2039 138.082Z" fill="#D9C5F2"/>
</g>
<defs>
<filter id="filter0_d" x="0" y="0" width="181.728" height="183" filterUnits="userSpaceOnUse" color-interpolation-filters="sRGB">
<feFlood flood-opacity="0" result="BackgroundImageFix"/>
<feColorMatrix in="SourceAlpha" type="matrix" values="0 0 0 0 0 0 0 0 0 0 0 0 0 0 0 0 0 0 127 0"/>
<feOffset dy="4"/>
<feGaussianBlur stdDeviation="17.5"/>
<feColorMatrix type="matrix" values="0 0 0 0 0.466667 0 0 0 0 0.0588235 0 0 0 0 0.996078 0 0 0 1 0"/>
<feBlend mode="normal" in2="BackgroundImageFix" result="effect1_dropShadow"/>
<feBlend mode="normal" in="SourceGraphic" in2="effect1_dropShadow" result="shape"/>
</filter>
</defs>
</svg>
