<svg width="163" height="183" viewBox="0 0 163 183" fill="none" xmlns="http://www.w3.org/2000/svg">
<g filter="url(#filter0_d)">
<path d="M48.9877 113.908L35 131.893L51.1427 129.875L55.1784 144L69.3034 125.839L69.3681 125.756C66.5714 122.933 63.5082 120.389 60.2233 118.153C56.6232 116.38 52.86 114.959 48.9877 113.908Z" fill="#F8F3FF"/>
<path d="M113.83 113.908C109.958 114.957 106.195 116.376 102.595 118.145C99.3098 120.379 96.2489 122.925 93.4521 125.748L107.64 144L111.675 129.875L127.818 131.893L113.83 113.908Z" fill="#F8F3FF"/>
<path d="M123.785 81.4463C123.785 72.9914 129.054 63.0434 125.102 56.223C121.029 49.1789 109.64 48.8198 102.597 44.7456C95.7711 40.7886 89.8648 31 81.4099 31C72.955 31 67.0488 40.7906 60.2224 44.7396C53.178 48.8158 41.7913 49.1789 37.7173 56.2173C33.7663 63.0436 39.0349 72.9916 39.0349 81.4463C39.0349 89.901 33.7663 99.8492 37.7173 106.67C41.7913 113.714 53.1802 114.073 60.2224 118.147C67.0488 122.104 72.955 131.893 81.4099 131.893C89.8648 131.893 95.7711 122.102 102.597 118.153C109.642 114.077 121.029 113.714 125.102 106.676C129.054 99.8492 123.785 89.9012 123.785 81.4463Z" fill="#9444FD"/>
<path d="M81.4081 115.75C100.354 115.75 115.712 100.392 115.712 81.4463C115.712 62.5009 100.354 47.1426 81.4081 47.1426C62.4628 47.1426 47.1045 62.5009 47.1045 81.4463C47.1045 100.392 62.4628 115.75 81.4081 115.75Z" fill="#F8F3FF"/>
<path d="M101.431 73.3751H87.6028L83.3288 60.2247C82.9817 59.1653 81.8398 58.5902 80.7824 58.9373C80.173 59.1371 79.6948 59.6153 79.495 60.2247L75.2174 73.3751H61.389C60.2751 73.3751 59.3711 74.2791 59.3711 75.3929C59.3711 76.0387 59.6799 76.6461 60.2025 77.0255L71.3895 85.1555L67.1156 98.3079C66.7706 99.3673 67.3517 100.505 68.4111 100.85C69.0266 101.05 69.6985 100.943 70.2211 100.564L81.4101 92.4336L92.597 100.561C93.4991 101.217 94.7602 101.017 95.4161 100.115C95.7955 99.5928 95.9023 98.9188 95.7026 98.3055L91.4287 85.1531L102.616 77.0231C103.516 76.3673 103.713 75.104 103.057 74.204C102.678 73.6838 102.075 73.377 101.431 73.3751Z" fill="#FE650F"/>
<path d="M125.102 56.2231C125.015 56.0717 124.9 55.9426 124.814 55.7994C121.843 61.4533 118.322 66.7988 114.301 71.7606C119.656 89.9214 109.274 108.986 91.1133 114.342C79.1797 117.859 66.2756 114.636 57.397 105.919C51.3455 107.085 45.197 107.675 39.0345 107.679C38.8166 107.679 38.6048 107.665 38.3867 107.663C42.9208 113.752 53.5205 114.279 60.222 118.155C67.0483 122.102 72.9546 131.893 81.4095 131.893C89.8644 131.893 95.7706 122.103 102.597 118.153C109.641 114.077 121.028 113.714 125.102 106.676C129.053 99.8495 123.784 89.9013 123.784 81.4466C123.784 72.9919 129.053 63.0435 125.102 56.2231Z" fill="#770FFE"/>
<path d="M92.9483 91.2683L95.3132 98.5446C95.6581 99.604 95.077 100.742 94.0176 101.087C93.4021 101.287 92.7303 101.18 92.2076 100.801L85.4277 95.873C76.5532 100.78 66.9581 104.253 57 106.164C70.4933 119.444 92.1955 119.27 105.473 105.777C114.218 96.8902 117.449 83.9557 113.91 72C107.904 79.4154 100.842 85.9067 92.9483 91.2683Z" fill="#D9C5F2"/>
<path d="M95.8853 98.2764L93.5205 91C91.091 92.6487 88.5849 94.1841 86 95.6048L92.78 100.532C93.682 101.188 94.9431 100.988 95.599 100.086C95.9782 99.5637 96.085 98.8919 95.8853 98.2764Z" fill="#C84F0C"/>
<path d="M110.676 125.839C115.906 125.843 121.072 127.016 125.792 129.27L113.84 113.904C109.968 114.953 106.204 116.372 102.605 118.141C99.3196 120.375 96.2587 122.922 93.4619 125.745L96.0225 129.04C100.619 126.929 105.617 125.837 110.676 125.839Z" fill="#D9C5F2"/>
<path d="M60.2289 118.154C56.629 116.384 52.8658 114.965 48.9936 113.916L48.3701 114.723C55.1804 119.641 59.2161 127.529 59.2201 135.929C59.2161 136.982 59.1475 138.031 59.0184 139.077L69.3095 125.839L69.3742 125.757C66.577 122.934 63.5141 120.389 60.2289 118.154Z" fill="#D9C5F2"/>
</g>
<defs>
<filter id="filter0_d" x="0" y="0" width="162.818" height="183" filterUnits="userSpaceOnUse" color-interpolation-filters="sRGB">
<feFlood flood-opacity="0" result="BackgroundImageFix"/>
<feColorMatrix in="SourceAlpha" type="matrix" values="0 0 0 0 0 0 0 0 0 0 0 0 0 0 0 0 0 0 127 0"/>
<feOffset dy="4"/>
<feGaussianBlur stdDeviation="17.5"/>
<feColorMatrix type="matrix" values="0 0 0 0 0.466667 0 0 0 0 0.0588235 0 0 0 0 0.996078 0 0 0 1 0"/>
<feBlend mode="normal" in2="BackgroundImageFix" result="effect1_dropShadow"/>
<feBlend mode="normal" in="SourceGraphic" in2="effect1_dropShadow" result="shape"/>
</filter>
</defs>
</svg>
