<svg width="183" height="168" viewBox="0 0 183 168" fill="none" xmlns="http://www.w3.org/2000/svg">
<g filter="url(#filter0_d)">
<path d="M125.868 76.4338C125.868 101.527 105.527 121.868 80.4347 121.868C55.3418 121.868 35 101.527 35 76.4338C35 51.3418 55.3418 31 80.4347 31C105.527 31 125.868 51.3418 125.868 76.4338Z" fill="#FE650F"/>
<path d="M52.5847 40.5329C51.3622 41.483 50.188 42.4951 49.069 43.5633C40.1934 52.0345 35 64.0757 35 76.4334C35 90.4877 41.3823 103.051 51.4053 111.385C56.8789 115.935 63.4138 119.172 70.3565 120.746C73.6601 121.495 77.0465 121.868 80.4347 121.868C81.9511 121.868 83.4624 121.781 84.9729 121.643C84.9755 121.643 84.9789 121.642 84.9815 121.642C62.0241 119.361 44.0945 99.9917 44.0945 76.4334C44.0945 52.8759 62.0241 33.5066 84.9815 31.2255C84.234 31.1513 83.4814 31.0944 82.7245 31.0565C82.6969 31.0556 82.6684 31.0548 82.6408 31.0539C80.3562 30.9435 78.0647 31.0022 75.7896 31.2341C67.3735 32.0884 59.2644 35.343 52.5847 40.5329Z" fill="#C84F0C"/>
<path d="M102.013 56.5102C107.686 54.861 112.808 52.5591 117.04 49.6926C117.066 49.6745 117.089 49.6555 117.114 49.6365C116.44 48.7166 115.733 47.8226 114.994 46.9571C110.948 49.6736 106.028 51.8453 100.563 53.385C98.4823 49.2132 96.1003 45.5932 93.8829 42.6551C89.6576 37.0564 85.4677 33.0847 83.1986 31.1018C82.2839 31.0466 81.3632 31.0156 80.4347 31.0156C79.5062 31.0156 78.5854 31.0466 77.6707 31.1018C75.4016 33.0855 71.2117 37.0564 66.9864 42.6551C64.1975 46.3501 62.0111 49.946 60.299 53.3833C54.8374 51.8436 49.9199 49.6727 45.8757 46.9571C45.136 47.8226 44.429 48.7166 43.7557 49.6365C43.7798 49.6555 43.8031 49.6753 43.8298 49.6926C48.0603 52.5591 53.1813 54.8601 58.8515 56.5085C55.8211 63.5813 54.7779 69.8533 54.5891 74.7441H35.0353C35.0138 75.3105 35 75.8786 35 76.4494C35 77.021 35.0138 77.5891 35.0353 78.1546H54.5909C54.8409 84.8568 56.541 91.0089 58.8558 96.3894C53.183 98.0386 48.0611 100.34 43.829 103.207C43.8031 103.224 43.7798 103.244 43.7557 103.262C44.429 104.182 45.136 105.076 45.8757 105.943C49.9216 103.226 54.8417 101.054 60.3067 99.5146C62.387 103.686 64.7691 107.306 66.9864 110.245C71.2134 115.847 75.4033 119.817 77.6707 121.798C78.5854 121.853 79.5062 121.884 80.4347 121.884C81.3623 121.884 82.2839 121.853 83.1986 121.798C85.4651 119.817 89.6551 115.847 93.8829 110.245C96.671 106.549 98.8582 102.954 100.57 99.5163C106.032 101.056 110.949 103.228 114.994 105.943C115.733 105.077 116.439 104.183 117.114 103.262C117.089 103.244 117.065 103.224 117.04 103.207C112.809 100.34 107.688 98.0395 102.017 96.3911C105.048 89.3174 106.091 83.0463 106.279 78.1546H125.834C125.855 77.5891 125.868 77.021 125.868 76.4494C125.868 75.8786 125.855 75.3105 125.834 74.7441H106.278C106.028 68.0428 104.328 61.8907 102.013 56.5102ZM78.7294 118.158C76.462 116.066 73.0808 112.659 69.7082 108.19C67.7184 105.553 65.5872 102.34 63.6931 98.6576C68.4357 97.5869 73.5127 96.9722 78.7294 96.8618V118.158ZM78.7294 93.4504C72.9894 93.5677 67.3994 94.2755 62.1913 95.5109C59.9351 90.3933 58.2618 84.53 58.004 78.1546H78.7294V93.4504ZM78.7294 74.7441H58.004C58.2618 68.3678 59.936 62.5037 62.1913 57.3879C67.3985 58.6241 72.9894 59.3319 78.7294 59.4492V74.7441ZM78.7294 56.0378C73.5127 55.9274 68.4357 55.3127 63.6931 54.242C65.5708 50.5918 67.6804 47.4045 69.6504 44.7862C73.0342 40.2903 76.4456 36.8521 78.7294 34.7442V56.0378ZM82.1399 34.7417C84.4073 36.8332 87.7877 40.2403 91.1603 44.7095C93.1501 47.3467 95.2821 50.5599 97.1762 54.242C92.4328 55.3127 87.3566 55.9274 82.1391 56.0378V34.7417H82.1399ZM91.2181 108.113C87.8351 112.609 84.4237 116.047 82.1399 118.155V96.8618C87.3566 96.9722 92.4328 97.5869 97.1753 98.6576C95.2985 102.308 93.1889 105.495 91.2181 108.113ZM98.678 95.5117C93.4699 94.2755 87.88 93.5677 82.1399 93.4504V78.1546H102.864C102.607 84.5318 100.933 90.3959 98.678 95.5117ZM82.1399 74.7441V59.4492C87.88 59.3319 93.4699 58.6241 98.678 57.3879C100.934 62.5054 102.607 68.3696 102.864 74.7441H82.1399Z" fill="white"/>
<path d="M52.2521 102.428C51.596 101.488 50.9735 100.523 50.389 99.5334C48.0285 100.626 45.8284 101.853 43.83 103.207C43.8033 103.224 43.78 103.244 43.7559 103.262C44.4283 104.182 45.1353 105.075 45.8741 105.94C45.875 105.941 45.875 105.942 45.8758 105.942C47.8121 104.642 49.9511 103.468 52.2521 102.428Z" fill="white"/>
<path d="M78.9843 31.0406C78.5446 31.0552 78.1075 31.075 77.6713 31.1018C77.0204 31.6708 76.2065 32.4096 75.2832 33.2976C77.9385 32.4217 80.7016 31.7837 83.5484 31.4095C83.4285 31.3035 83.3104 31.1983 83.2001 31.1018C83.1845 31.1009 83.1682 31.1 83.1526 31.0992C81.7681 31.0207 80.3689 30.9543 78.9843 31.0406Z" fill="white"/>
<path d="M50.389 53.366C50.9735 52.3763 51.596 51.4116 52.2521 50.4719C49.9511 49.4313 47.8121 48.2571 45.8758 46.957C45.1361 47.8226 44.4292 48.7166 43.7559 49.6365C43.78 49.6555 43.8033 49.6753 43.8291 49.6925C45.8284 51.0469 48.0285 52.2737 50.389 53.366Z" fill="white"/>
<path d="M35.0359 78.1547H44.1296C44.1089 77.5891 44.0951 77.021 44.0951 76.4494C44.0951 75.8787 44.1089 75.3106 44.1296 74.7441C44.1296 74.7441 35.0359 74.7441 35.0359 74.7467C34.9902 75.883 34.9937 77.0193 35.0359 78.1547Z" fill="white"/>
<path d="M81.9266 121.857C82.3516 121.844 82.7758 121.824 83.2 121.798C83.3103 121.701 83.4284 121.596 83.5474 121.49C80.7015 121.116 77.9376 120.478 75.2822 119.602C76.2064 120.491 77.0203 121.229 77.6712 121.799C78.1074 121.825 78.5462 121.844 78.9859 121.859C79.9653 121.892 80.9464 121.89 81.9266 121.857Z" fill="white"/>
<path d="M143.698 101.972V89.3812C143.698 78.5194 134.598 69.8887 123.749 70.4275C104.776 71.3689 102.51 77.8995 102.51 77.8995C96.3499 77.8995 91.3564 82.8929 91.3564 89.0536V99.6836L143.698 101.972Z" fill="#770FFE"/>
<path d="M98.1776 99.6836V89.0536C98.1776 86.0301 99.3811 81.6445 101.335 77.9615C95.7274 78.5495 91.3564 83.2903 91.3564 89.0536V99.6836H98.1776Z" fill="#9444FD"/>
<path d="M148 105.077C148 108.32 145.37 110.95 142.127 110.95C138.884 110.95 136.255 108.32 136.255 105.077C136.255 101.834 138.884 99.2051 142.127 99.2051C145.37 99.2051 148 101.834 148 105.077Z" fill="#D9C5F2"/>
<path d="M142.128 104.956C142.128 101.179 141.204 97.611 139.565 94.4513C137.81 91.0718 134.321 88.9493 130.513 88.9493H105.296C101.489 88.9493 98 91.0718 96.2456 94.4513C94.605 97.611 93.6816 101.179 93.6816 104.956V105.017V105.077C93.6816 118.023 104.527 128.519 117.905 128.519C131.283 128.519 142.128 118.023 142.128 105.077C142.128 105.057 142.128 105.036 142.128 105.017C142.128 104.997 142.128 104.977 142.128 104.956Z" fill="white"/>
<path d="M99.3654 105.077C99.3654 105.057 99.3654 105.037 99.3654 105.017C99.3654 104.997 99.3654 104.977 99.3654 104.956C99.3654 101.179 100.29 97.611 101.929 94.4513C103.684 91.0718 107.173 88.9493 110.981 88.9493H105.296C101.489 88.9493 97.9998 91.0718 96.2454 94.4513C95.4592 95.9652 94.8402 97.5739 94.4057 99.2542C94.1763 99.2232 93.9358 99.2051 93.6815 99.2051C90.4382 99.2051 87.8096 101.834 87.8096 105.077C87.8096 108.321 90.4382 110.95 93.6815 110.95C93.9462 110.95 94.1962 110.931 94.4341 110.897C97.1084 121.028 106.603 128.519 117.905 128.519C118.867 128.519 119.815 128.464 120.747 128.358C108.708 126.996 99.3654 117.093 99.3654 105.077Z" fill="#D9C5F2"/>
<path d="M129.446 108.386C128.505 108.386 127.741 107.623 127.741 106.681V104.436C127.741 103.495 128.505 102.731 129.446 102.731C130.389 102.731 131.152 103.495 131.152 104.436V106.681C131.152 107.623 130.389 108.386 129.446 108.386Z" fill="#770FFE"/>
<path d="M106.363 108.386C105.421 108.386 104.657 107.623 104.657 106.681V104.436C104.657 103.495 105.421 102.731 106.363 102.731C107.304 102.731 108.068 103.495 108.068 104.436V106.681C108.068 107.623 107.305 108.386 106.363 108.386Z" fill="#770FFE"/>
<path d="M117.904 111.558C116.608 111.558 115.388 111.013 114.556 110.062C113.937 109.352 114.008 108.275 114.718 107.656C115.427 107.036 116.504 107.108 117.124 107.817C117.308 108.027 117.592 108.148 117.904 108.148C118.217 108.148 118.502 108.027 118.685 107.817C119.305 107.108 120.382 107.036 121.092 107.656C121.8 108.275 121.873 109.352 121.253 110.062C120.422 111.013 119.201 111.558 117.904 111.558Z" fill="#770FFE"/>
</g>
<defs>
<filter id="filter0_d" x="0" y="0" width="183" height="167.519" filterUnits="userSpaceOnUse" color-interpolation-filters="sRGB">
<feFlood flood-opacity="0" result="BackgroundImageFix"/>
<feColorMatrix in="SourceAlpha" type="matrix" values="0 0 0 0 0 0 0 0 0 0 0 0 0 0 0 0 0 0 127 0"/>
<feOffset dy="4"/>
<feGaussianBlur stdDeviation="17.5"/>
<feColorMatrix type="matrix" values="0 0 0 0 0.466667 0 0 0 0 0.0588235 0 0 0 0 0.996078 0 0 0 1 0"/>
<feBlend mode="normal" in2="BackgroundImageFix" result="effect1_dropShadow"/>
<feBlend mode="normal" in="SourceGraphic" in2="effect1_dropShadow" result="shape"/>
</filter>
</defs>
</svg>
