<svg width="144" height="183" viewBox="0 0 144 183" fill="none" xmlns="http://www.w3.org/2000/svg">
<g filter="url(#filter0_d)">
<path d="M93.6635 90.7166C91.7409 88.9941 91.7409 86.0059 93.6635 84.2834C102.028 76.7899 105.175 61.7398 105.175 44.7741L71.907 37.8866L38.6377 44.7741C38.6377 61.7398 41.7862 76.7899 50.1505 84.2834C52.0721 86.0059 52.0721 88.9941 50.1505 90.7166C41.7862 98.2101 38.6377 113.26 38.6377 130.226L71.907 137.113L105.175 130.226C105.175 113.26 102.027 98.2101 93.6635 90.7166Z" fill="#9444FD"/>
<path d="M94.2795 68C94.2795 68 89.2645 88.428 71.6402 88.428C54.015 88.428 49 68 49 68H94.2795Z" fill="white"/>
<path d="M38.6377 130.226L71.907 137.113L105.175 130.226C105.175 127.912 105.114 125.634 104.992 123.406H38.8213C38.6989 125.634 38.6377 127.911 38.6377 130.226Z" fill="#770FFE"/>
<path d="M100.927 131.31C100.927 131.31 94.4979 105.126 71.9077 105.126C49.3167 105.126 42.8887 131.31 42.8887 131.31H100.927Z" fill="white"/>
<path d="M38.6377 44.7741C38.6377 47.0889 38.6989 49.3658 38.8213 51.5944H104.993C105.115 49.3658 105.176 47.0889 105.176 44.7741L71.907 37.8866L38.6377 44.7741Z" fill="#770FFE"/>
<path d="M105.176 31H38.6382C36.6285 31 35 32.6285 35 34.6382V41.1351C35 43.1447 36.6285 44.7741 38.6382 44.7741H105.176C107.185 44.7741 108.815 43.1447 108.815 41.1351V34.6382C108.815 32.6285 107.185 31 105.176 31Z" fill="#FE650F"/>
<path d="M42.8887 131.31H100.927C100.927 131.31 100.071 127.828 97.8894 123.406H45.9251C43.7448 127.828 42.8887 131.31 42.8887 131.31Z" fill="#D9C5F2"/>
<path d="M105.176 144H38.6382C36.6285 144 35 142.371 35 140.362V133.865C35 131.855 36.6285 130.226 38.6382 130.226H105.176C107.185 130.226 108.815 131.855 108.815 133.865V140.362C108.815 142.371 107.185 144 105.176 144Z" fill="#FE650F"/>
</g>
<defs>
<filter id="filter0_d" x="0" y="0" width="143.815" height="183" filterUnits="userSpaceOnUse" color-interpolation-filters="sRGB">
<feFlood flood-opacity="0" result="BackgroundImageFix"/>
<feColorMatrix in="SourceAlpha" type="matrix" values="0 0 0 0 0 0 0 0 0 0 0 0 0 0 0 0 0 0 127 0"/>
<feOffset dy="4"/>
<feGaussianBlur stdDeviation="17.5"/>
<feColorMatrix type="matrix" values="0 0 0 0 0.466667 0 0 0 0 0.0588235 0 0 0 0 0.996078 0 0 0 1 0"/>
<feBlend mode="normal" in2="BackgroundImageFix" result="effect1_dropShadow"/>
<feBlend mode="normal" in="SourceGraphic" in2="effect1_dropShadow" result="shape"/>
</filter>
</defs>
</svg>
