<svg width="245" height="245" viewBox="0 0 245 245" fill="none" xmlns="http://www.w3.org/2000/svg">
<g filter="url(#filter0_d)">
<circle cx="122.5" cy="118.5" r="87.5" fill="url(#paint0_linear)"/>
</g>
<circle cx="122" cy="119" r="106.5" stroke="#710EF3"/>
<path d="M164.515 71.21C151.542 76.8985 138.568 61.2415 125.595 69.8451L122.5 80.2074L125.595 92.7318C139.117 83.7634 152.638 101.152 166.161 93.2567C166.682 92.9523 167.004 92.4136 167.004 91.8315V72.7168C167.004 71.4984 165.677 70.7004 164.515 71.21Z" fill="#FE650F"/>
<path d="M130.877 67.5715C129.116 67.9599 127.355 68.6778 125.595 69.8451L122.5 80.2073L125.595 92.7318C127.355 91.5637 129.116 90.8465 130.877 90.4582V67.5715Z" fill="#C8510F"/>
<path d="M124.379 63H121.81C120.81 63 120 63.7721 120 64.7242V116.504H126.19V64.7242C126.19 63.7721 125.379 63 124.379 63Z" fill="#251764"/>
<path d="M175 162.702L130.069 105.638C128.311 103.328 125.496 101.96 122.5 101.96C119.504 101.96 116.689 103.328 114.931 105.638L70 162.702H175Z" fill="#770FFE"/>
<path d="M105.863 126.888C113.813 126.888 120.282 120.727 120.282 113.155C120.282 109.63 118.879 106.412 116.579 103.978C115.964 104.457 115.407 105.012 114.931 105.638L98.1992 126.888H105.863Z" fill="#251764"/>
<path d="M105.863 104.453C104.748 104.453 103.68 104.644 102.694 104.991C100.946 101.632 97.3102 99.322 93.1069 99.322C87.3086 99.322 82.591 103.718 82.4196 109.201C81.4655 108.739 80.3865 108.477 79.2425 108.477C75.3628 108.477 72.2178 111.473 72.2178 115.168C72.2178 118.862 75.3628 121.858 79.2425 121.858H105.863C110.909 121.858 115 117.961 115 113.155C115 108.349 110.909 104.453 105.863 104.453Z" fill="#EFEDEE"/>
<path d="M138.546 116.403C131.788 118.124 126.342 122.97 124.114 129.322C116.749 130.776 111.197 137.004 111.197 144.443C111.197 152.958 118.471 159.886 127.412 159.886H159.577C163.539 159.886 167.2 158.649 170.165 156.562L138.546 116.403Z" fill="#251764"/>
<path d="M159.578 130.912C159.339 130.912 159.102 130.919 158.866 130.932C156.779 125.016 150.913 120.751 143.997 120.751C135.907 120.751 129.249 126.584 128.403 134.075C128.077 134.047 127.747 134.03 127.413 134.03C121.374 134.03 116.479 138.692 116.479 144.443C116.479 150.193 121.374 154.856 127.413 154.856H159.578C166.52 154.856 172.149 149.495 172.149 142.884C172.149 136.272 166.52 130.912 159.578 130.912Z" fill="#EFEDEE"/>
<defs>
<filter id="filter0_d" x="0" y="0" width="245" height="245" filterUnits="userSpaceOnUse" color-interpolation-filters="sRGB">
<feFlood flood-opacity="0" result="BackgroundImageFix"/>
<feColorMatrix in="SourceAlpha" type="matrix" values="0 0 0 0 0 0 0 0 0 0 0 0 0 0 0 0 0 0 127 0"/>
<feOffset dy="4"/>
<feGaussianBlur stdDeviation="17.5"/>
<feColorMatrix type="matrix" values="0 0 0 0 0.431373 0 0 0 0 0.054902 0 0 0 0 0.929412 0 0 0 1 0"/>
<feBlend mode="normal" in2="BackgroundImageFix" result="effect1_dropShadow"/>
<feBlend mode="normal" in="SourceGraphic" in2="effect1_dropShadow" result="shape"/>
</filter>
<linearGradient id="paint0_linear" x1="122.5" y1="31" x2="122.5" y2="206" gradientUnits="userSpaceOnUse">
<stop stop-color="#770FFE"/>
<stop offset="1" stop-color="#10053F"/>
</linearGradient>
</defs>
</svg>
