<svg width="245" height="245" viewBox="0 0 245 245" fill="none" xmlns="http://www.w3.org/2000/svg">
<g filter="url(#filter0_d)">
<circle cx="122.5" cy="118.5" r="87.5" fill="url(#paint0_linear)"/>
</g>
<circle cx="122" cy="119" r="106.5" stroke="#710EF3"/>
<path d="M138.231 133.616L151.089 120.758L155.73 125.398L142.872 138.257L138.231 133.616Z" fill="white"/>
<path d="M151.255 120.862L143.493 128.623C144.556 130.584 146.174 132.201 148.134 133.264L155.894 125.503L151.255 120.862Z" fill="#D9C5F2"/>
<path d="M159.235 123.078C159.235 126.295 156.627 128.902 153.411 128.902C150.195 128.902 147.587 126.295 147.587 123.078C147.587 119.862 150.195 117.254 153.411 117.254C156.627 117.254 159.235 119.862 159.235 123.078Z" fill="#770FFE"/>
<path d="M155.951 117.835C156.323 118.602 156.532 119.464 156.532 120.374C156.532 123.59 153.924 126.198 150.708 126.198C149.798 126.198 148.936 125.989 148.169 125.616C149.112 127.561 151.106 128.902 153.412 128.902C156.628 128.902 159.236 126.295 159.236 123.078C159.236 120.772 157.896 118.778 155.951 117.835Z" fill="#9444FD"/>
<path d="M123.963 84.2518C123.963 84.2518 137.725 88.6857 139.102 104.895C140.478 121.104 133.443 125.844 133.443 125.844L121.973 105.048L123.963 84.2518Z" fill="white"/>
<path d="M154.227 140.831L133.442 125.843L123.962 84.2518H143.584C145.837 84.2518 147.664 82.4249 147.664 80.1725V66.0793C147.664 63.826 145.838 62 143.584 62H105.162C104.079 62 103.042 62.4298 102.277 63.1946L87.1946 78.2772C86.4298 79.042 86 80.0793 86 81.1611V169.921C86 172.174 87.826 174 90.0793 174H151.841C154.094 174 155.921 172.174 155.921 169.921V144.14C155.921 142.829 155.291 141.599 154.227 140.831Z" fill="#FE650F"/>
<path d="M141.101 77.6885H115.735L116.75 82.1361L105.989 101.417L92.5625 106.323V82.1908L106.191 68.5625H141.101V77.6885Z" fill="#251764"/>
<path d="M99.3233 75.4301L92.5625 82.1909V106.323L99.3233 103.853V75.4301Z" fill="#10053F"/>
<path d="M149.359 145.411V167.438H92.5625V149.445L108.658 127.497L124.754 117.254L127.595 129.719L149.359 145.411Z" fill="#251764"/>
<path d="M92.5625 149.445V167.438H99.3233V140.431L92.5625 149.445Z" fill="#10053F"/>
<path d="M122.085 105.549L108.658 127.497L92.5625 135.071V120.698L105.989 101.417L119.417 93.8435L122.085 105.549Z" fill="#10053F"/>
<path d="M99.3233 110.989L92.5625 120.698V135.071L99.3233 131.89V110.989Z" fill="#251764"/>
<path d="M119.417 93.8435L92.5625 120.698V106.323L116.75 82.136L119.417 93.8435Z" fill="#770FFE"/>
<path d="M99.3233 99.5627L92.5625 106.323V120.698L99.3233 113.937V99.5627Z" fill="#9444FD"/>
<path d="M124.754 117.254L92.5625 149.445V135.071L122.085 105.549L124.754 117.254Z" fill="#770FFE"/>
<path d="M99.3233 128.311L92.5625 135.071V149.445L99.3233 142.685V128.311Z" fill="#9444FD"/>
<defs>
<filter id="filter0_d" x="0" y="0" width="245" height="245" filterUnits="userSpaceOnUse" color-interpolation-filters="sRGB">
<feFlood flood-opacity="0" result="BackgroundImageFix"/>
<feColorMatrix in="SourceAlpha" type="matrix" values="0 0 0 0 0 0 0 0 0 0 0 0 0 0 0 0 0 0 127 0"/>
<feOffset dy="4"/>
<feGaussianBlur stdDeviation="17.5"/>
<feColorMatrix type="matrix" values="0 0 0 0 0.431373 0 0 0 0 0.054902 0 0 0 0 0.929412 0 0 0 1 0"/>
<feBlend mode="normal" in2="BackgroundImageFix" result="effect1_dropShadow"/>
<feBlend mode="normal" in="SourceGraphic" in2="effect1_dropShadow" result="shape"/>
</filter>
<linearGradient id="paint0_linear" x1="122.5" y1="31" x2="122.5" y2="206" gradientUnits="userSpaceOnUse">
<stop stop-color="#770FFE"/>
<stop offset="1" stop-color="#10053F"/>
</linearGradient>
</defs>
</svg>
