<svg width="245" height="245" viewBox="0 0 245 245" fill="none" xmlns="http://www.w3.org/2000/svg">
<g filter="url(#filter0_d)">
<circle cx="122.5" cy="118.5" r="87.5" fill="url(#paint0_linear)"/>
</g>
<circle cx="122" cy="119" r="106.5" stroke="#710EF3"/>
<path d="M163.648 118.721C163.648 141.446 145.225 159.869 122.5 159.869C99.7742 159.869 81.3516 141.446 81.3516 118.721C81.3516 95.9951 99.7742 77.5724 122.5 77.5724C145.225 77.5724 163.648 95.9951 163.648 118.721Z" fill="#FE650F"/>
<path d="M104.069 85.0618V62H141.804V85.0618L122.936 89.6388L104.069 85.0618Z" fill="#251764"/>
<path d="M100.335 99.7285C98.4936 101.57 98.4929 104.557 100.336 106.399C102.177 108.241 105.165 108.241 107.006 106.399L110.842 102.564L109.399 97.3352L104.171 95.8928L100.335 99.7285Z" fill="#D9C5F2"/>
<path d="M108.017 161.227C110.532 160.553 112.026 157.966 111.352 155.449C110.678 152.933 108.091 151.44 105.575 152.114L100.336 153.518L98.971 158.768L102.777 162.631L108.017 161.227Z" fill="#D9C5F2"/>
<path d="M136.671 162.123C134.066 162.123 131.955 160.011 131.954 157.405C131.954 154.801 134.066 152.689 136.671 152.689H142.095L144.772 157.407L142.095 162.123H136.671Z" fill="#D9C5F2"/>
<path d="M118.22 119.426C115.614 119.426 113.502 117.314 113.502 114.709C113.502 117.314 111.391 119.426 108.785 119.426C106.181 119.426 104.068 117.314 104.068 114.709V94.2149L122.936 89.6379L141.803 94.2149V114.709C141.803 117.314 139.691 119.426 137.087 119.426C134.481 119.426 132.37 117.314 132.37 114.709C132.37 117.314 130.258 119.426 127.653 119.426C125.048 119.426 122.936 117.314 122.936 114.709C122.936 117.314 120.824 119.426 118.22 119.426Z" fill="white"/>
<path d="M110.784 134.735C112.627 136.578 112.627 139.564 110.785 141.406C112.627 139.564 115.612 139.563 117.455 141.406C119.297 143.247 119.297 146.234 117.455 148.076L102.963 162.568L86.3862 152.463L76.2812 135.885L90.7735 121.393C92.615 119.553 95.6014 119.553 97.4429 121.393C99.2861 123.236 99.2844 126.222 97.4429 128.063C99.2844 126.222 102.272 126.222 104.114 128.064C105.955 129.906 105.955 132.893 104.114 134.735C105.955 132.893 108.943 132.893 110.784 134.735Z" fill="white"/>
<path d="M66 146.167V175H90.5317L96.4915 169.04L86.3866 152.463L69.8089 142.358L66 146.167Z" fill="#251764"/>
<path d="M134.215 134.735C132.373 136.578 132.373 139.564 134.214 141.406C132.373 139.564 129.387 139.563 127.544 141.406C125.703 143.247 125.703 146.234 127.544 148.076L142.036 162.568L158.613 152.463L168.718 135.885L154.226 121.393C152.385 119.553 149.398 119.553 147.557 121.393C145.713 123.236 145.715 126.222 147.557 128.063C145.715 126.222 142.728 126.222 140.886 128.064C139.044 129.906 139.044 132.893 140.886 134.735C139.044 132.893 136.057 132.893 134.215 134.735Z" fill="white"/>
<path d="M179 146.167V175H154.469L148.509 169.04L158.614 152.463L175.191 142.358L179 146.167Z" fill="#251764"/>
<path d="M104.069 85.0617H141.804V94.2149H104.069V85.0617Z" fill="#770FFE"/>
<path d="M110.458 89.6388C110.458 90.3776 109.858 90.9768 109.119 90.9768C108.38 90.9768 107.78 90.3776 107.78 89.6388C107.78 88.8991 108.38 88.2999 109.119 88.2999C109.858 88.2999 110.458 88.8991 110.458 89.6388Z" fill="#9444FD"/>
<path d="M76.2815 135.885L102.963 162.567L96.4914 169.039L69.8096 142.357L76.2815 135.885Z" fill="#770FFE"/>
<path d="M97.4943 162.232C97.4943 162.972 96.8951 163.571 96.1554 163.571C95.4166 163.571 94.8174 162.972 94.8174 162.232C94.8174 161.493 95.4166 160.894 96.1554 160.894C96.8951 160.894 97.4943 161.493 97.4943 162.232Z" fill="#9444FD"/>
<path d="M175.192 142.358L148.51 169.04L142.038 162.568L168.72 135.885L175.192 142.358Z" fill="#770FFE"/>
<path d="M150.182 162.232C150.182 162.972 149.583 163.571 148.844 163.571C148.104 163.571 147.505 162.972 147.505 162.232C147.505 161.493 148.104 160.894 148.844 160.894C149.583 160.894 150.182 161.493 150.182 162.232Z" fill="#9444FD"/>
<defs>
<filter id="filter0_d" x="0" y="0" width="245" height="245" filterUnits="userSpaceOnUse" color-interpolation-filters="sRGB">
<feFlood flood-opacity="0" result="BackgroundImageFix"/>
<feColorMatrix in="SourceAlpha" type="matrix" values="0 0 0 0 0 0 0 0 0 0 0 0 0 0 0 0 0 0 127 0"/>
<feOffset dy="4"/>
<feGaussianBlur stdDeviation="17.5"/>
<feColorMatrix type="matrix" values="0 0 0 0 0.431373 0 0 0 0 0.054902 0 0 0 0 0.929412 0 0 0 1 0"/>
<feBlend mode="normal" in2="BackgroundImageFix" result="effect1_dropShadow"/>
<feBlend mode="normal" in="SourceGraphic" in2="effect1_dropShadow" result="shape"/>
</filter>
<linearGradient id="paint0_linear" x1="122.5" y1="31" x2="122.5" y2="206" gradientUnits="userSpaceOnUse">
<stop stop-color="#770FFE"/>
<stop offset="1" stop-color="#10053F"/>
</linearGradient>
</defs>
</svg>
