<svg width="145" height="203" viewBox="0 0 145 203" fill="none" xmlns="http://www.w3.org/2000/svg">
<path d="M16.8252 166.847L11.7324 159.902H11.4306H6.11139V166.847H0V141.917H11.4306C13.7695 141.917 15.7941 142.285 17.5042 143.021C19.2396 143.757 20.5725 144.802 21.5031 146.155C22.4336 147.508 22.8989 149.111 22.8989 150.963C22.8989 152.815 22.421 154.417 21.4653 155.771C20.5348 157.1 19.2018 158.121 17.4665 158.834L23.3893 166.847H16.8252ZM16.712 150.963C16.712 149.562 16.2342 148.494 15.2785 147.758C14.3228 146.998 12.927 146.618 11.091 146.618H6.11139V155.308H11.091C12.927 155.308 14.3228 154.928 15.2785 154.168C16.2342 153.408 16.712 152.34 16.712 150.963Z" fill="white"/>
<path d="M35.328 147.401C38.4717 147.401 40.8861 148.114 42.5711 149.538C44.2561 150.939 45.0986 153.064 45.0986 155.913V166.847H39.5908V164.461C38.4843 166.241 36.422 167.132 33.404 167.132C31.8447 167.132 30.4866 166.882 29.3297 166.384C28.198 165.885 27.3303 165.197 26.7267 164.318C26.1231 163.44 25.8213 162.442 25.8213 161.327C25.8213 159.546 26.5255 158.145 27.9339 157.124C29.3675 156.103 31.5681 155.593 34.5357 155.593H39.2136C39.2136 154.382 38.8238 153.456 38.0441 152.815C37.2645 152.15 36.095 151.818 34.5357 151.818C33.4543 151.818 32.3854 151.984 31.3291 152.316C30.298 152.625 29.4178 153.052 28.6884 153.598L26.5758 149.716C27.6824 148.98 29.0028 148.411 30.5369 148.007C32.0962 147.603 33.6932 147.401 35.328 147.401ZM34.8753 163.392C35.8813 163.392 36.7741 163.179 37.5537 162.751C38.3334 162.3 38.8866 161.647 39.2136 160.792V158.834H35.1771C32.7627 158.834 31.5555 159.581 31.5555 161.077C31.5555 161.79 31.8447 162.359 32.4232 162.787C33.0267 163.19 33.8441 163.392 34.8753 163.392Z" fill="white"/>
<path d="M62.7609 147.401C65.2758 147.401 67.3004 148.114 68.8345 149.538C70.3938 150.963 71.1734 153.076 71.1734 155.878V166.847H65.2884V156.732C65.2884 155.213 64.9363 154.085 64.2321 153.349C63.5279 152.589 62.5094 152.209 61.1764 152.209C59.6926 152.209 58.5105 152.649 57.6303 153.527C56.7501 154.382 56.3099 155.664 56.3099 157.373V166.847H50.4249V147.686H56.0459V149.93C56.8255 149.123 57.7938 148.506 58.9507 148.078C60.1076 147.627 61.3776 147.401 62.7609 147.401Z" fill="white"/>
<path d="M85.2223 159.332L82.393 161.968V166.847H76.508V140.421H82.393V155.379L90.9942 147.686H98.011L89.5607 155.806L98.7655 166.847H91.6355L85.2223 159.332Z" fill="white"/>
<path d="M120.409 157.338C120.409 157.409 120.371 157.908 120.296 158.834H104.942C105.218 160.021 105.872 160.959 106.903 161.647C107.935 162.336 109.217 162.68 110.751 162.68C111.808 162.68 112.738 162.537 113.543 162.253C114.373 161.944 115.14 161.469 115.844 160.828L118.975 164.033C117.064 166.099 114.272 167.132 110.6 167.132C108.312 167.132 106.287 166.716 104.527 165.885C102.766 165.03 101.408 163.855 100.452 162.359C99.4968 160.864 99.019 159.166 99.019 157.267C99.019 155.391 99.4842 153.705 100.415 152.209C101.37 150.69 102.666 149.515 104.3 148.684C105.96 147.829 107.809 147.401 109.846 147.401C111.833 147.401 113.631 147.805 115.241 148.612C116.85 149.42 118.108 150.583 119.013 152.103C119.944 153.598 120.409 155.343 120.409 157.338ZM109.884 151.604C108.551 151.604 107.432 151.96 106.526 152.672C105.621 153.385 105.067 154.358 104.866 155.593H114.863C114.662 154.382 114.109 153.42 113.203 152.708C112.298 151.972 111.191 151.604 109.884 151.604Z" fill="white"/>
<path d="M145 140.421V166.847H139.379V164.639C137.92 166.301 135.808 167.132 133.041 167.132C131.13 167.132 129.395 166.728 127.835 165.921C126.301 165.114 125.094 163.962 124.214 162.466C123.333 160.97 122.893 159.237 122.893 157.267C122.893 155.296 123.333 153.563 124.214 152.067C125.094 150.571 126.301 149.42 127.835 148.612C129.395 147.805 131.13 147.401 133.041 147.401C135.632 147.401 137.656 148.173 139.115 149.716V140.421H145ZM134.06 162.573C135.544 162.573 136.776 162.098 137.757 161.149C138.738 160.175 139.228 158.881 139.228 157.267C139.228 155.652 138.738 154.37 137.757 153.42C136.776 152.447 135.544 151.96 134.06 151.96C132.551 151.96 131.306 152.447 130.325 153.42C129.344 154.37 128.854 155.652 128.854 157.267C128.854 158.881 129.344 160.175 130.325 161.149C131.306 162.098 132.551 162.573 134.06 162.573Z" fill="white"/>
<path d="M46.5624 193.079H48.6139V200.52C47.67 201.319 46.5528 201.932 45.2622 202.359C43.9716 202.786 42.6136 203 41.1881 203C39.1656 203 37.3453 202.573 35.7272 201.718C34.1092 200.864 32.8378 199.684 31.9132 198.179C30.9886 196.655 30.5263 194.955 30.5263 193.079C30.5263 191.203 30.9886 189.512 31.9132 188.007C32.8378 186.484 34.1092 185.295 35.7272 184.44C37.3453 183.585 39.1752 183.158 41.2171 183.158C42.7581 183.158 44.1738 183.399 45.4644 183.883C46.755 184.347 47.8434 185.044 48.7294 185.973L47.4003 187.282C45.8015 185.759 43.7693 184.997 41.3037 184.997C39.6664 184.997 38.1832 185.35 36.8541 186.056C35.5442 186.744 34.5137 187.71 33.7624 188.955C33.0112 190.181 32.6356 191.556 32.6356 193.079C32.6356 194.602 33.0112 195.977 33.7624 197.203C34.5137 198.43 35.5442 199.396 36.8541 200.102C38.1639 200.808 39.6375 201.161 41.2748 201.161C43.3552 201.161 45.1177 200.659 46.5624 199.656V193.079Z" fill="#A293B6"/>
<path d="M59.5484 188.063C61.5325 188.063 63.0542 188.546 64.1136 189.512C65.1731 190.459 65.7028 191.871 65.7028 193.748V202.833H63.738V200.548C63.2757 201.309 62.5919 201.904 61.6866 202.331C60.8005 202.759 59.741 202.972 58.5082 202.972C56.8131 202.972 55.4647 202.582 54.4631 201.802C53.4614 201.021 52.9606 199.99 52.9606 198.708C52.9606 197.464 53.4229 196.46 54.3475 195.699C55.2914 194.937 56.7842 194.556 58.826 194.556H63.6513V193.664C63.6513 192.401 63.2853 191.444 62.5534 190.794C61.8214 190.125 60.7523 189.791 59.3462 189.791C58.383 189.791 57.4584 189.948 56.5723 190.264C55.6863 190.562 54.9254 190.98 54.2897 191.518L53.3651 190.041C54.1356 189.41 55.0602 188.927 56.1389 188.592C57.2176 188.239 58.3541 188.063 59.5484 188.063ZM58.826 201.412C59.9818 201.412 60.9738 201.161 61.8021 200.659C62.6304 200.139 63.2468 199.396 63.6513 198.43V196.033H58.8838C56.2834 196.033 54.9832 196.906 54.9832 198.653C54.9832 199.507 55.3203 200.185 55.9945 200.687C56.6686 201.17 57.6125 201.412 58.826 201.412Z" fill="#A293B6"/>
<path d="M90.2292 188.063C92.1362 188.063 93.629 188.592 94.7077 189.651C95.8057 190.71 96.3547 192.271 96.3547 194.333V202.833H94.3032V194.528C94.3032 193.005 93.918 191.844 93.1475 191.045C92.3962 190.246 91.3271 189.846 89.9402 189.846C88.3607 189.846 87.1183 190.32 86.2129 191.268C85.3076 192.197 84.8549 193.488 84.8549 195.141V202.833H82.8034V194.528C82.8034 193.005 82.4182 191.844 81.6477 191.045C80.8965 190.246 79.8177 189.846 78.4116 189.846C76.8513 189.846 75.6089 190.32 74.6843 191.268C73.7789 192.197 73.3263 193.488 73.3263 195.141V202.833H71.2748V188.174H73.2396V190.85C73.7789 189.958 74.5302 189.27 75.4933 188.787C76.4564 188.304 77.564 188.063 78.8161 188.063C80.0874 188.063 81.1854 188.323 82.11 188.843C83.0539 189.363 83.757 190.134 84.2193 191.156C84.7779 190.19 85.5773 189.438 86.6174 188.899C87.6769 188.341 88.8808 188.063 90.2292 188.063Z" fill="#A293B6"/>
<path d="M115.208 196.117H102.495C102.61 197.64 103.217 198.876 104.315 199.823C105.413 200.752 106.8 201.217 108.476 201.217C109.42 201.217 110.286 201.059 111.076 200.743C111.866 200.408 112.55 199.925 113.128 199.294L114.283 200.576C113.609 201.356 112.762 201.95 111.741 202.359C110.739 202.768 109.631 202.972 108.418 202.972C106.858 202.972 105.471 202.656 104.257 202.025C103.063 201.374 102.129 200.483 101.454 199.349C100.78 198.216 100.443 196.934 100.443 195.504C100.443 194.073 100.761 192.791 101.397 191.658C102.052 190.524 102.938 189.642 104.055 189.01C105.191 188.379 106.463 188.063 107.869 188.063C109.275 188.063 110.537 188.379 111.654 189.01C112.771 189.642 113.648 190.524 114.283 191.658C114.919 192.772 115.237 194.054 115.237 195.504L115.208 196.117ZM107.869 189.763C106.405 189.763 105.172 190.218 104.17 191.128C103.188 192.02 102.629 193.19 102.495 194.64H113.272C113.137 193.19 112.569 192.02 111.567 191.128C110.585 190.218 109.352 189.763 107.869 189.763Z" fill="#A293B6"/>
<path d="M19.0789 10.3026C19.0789 4.61265 23.6916 0 29.3816 0H116.382C122.072 0 126.684 4.61265 126.684 10.3026V96.1579C126.684 101.848 122.072 106.461 116.382 106.461H29.3815C23.6916 106.461 19.0789 101.848 19.0789 96.1579V10.3026Z" fill="url(#paint0_radial)"/>
<path fill-rule="evenodd" clip-rule="evenodd" d="M116.382 3.43421H29.3816C25.5882 3.43421 22.5131 6.50931 22.5131 10.3026V96.1579C22.5131 99.9512 25.5882 103.026 29.3815 103.026H116.382C120.175 103.026 123.25 99.9512 123.25 96.1579V10.3026C123.25 6.50931 120.175 3.43421 116.382 3.43421ZM29.3816 0C23.6916 0 19.0789 4.61265 19.0789 10.3026V96.1579C19.0789 101.848 23.6916 106.461 29.3815 106.461H116.382C122.072 106.461 126.684 101.848 126.684 96.1579V10.3026C126.684 4.61265 122.072 0 116.382 0H29.3816Z" fill="#770FFE"/>
<path fill-rule="evenodd" clip-rule="evenodd" d="M59.1448 85.8552H35.1053C36.6639 80.1819 38.7317 73.9994 40.8096 67.7869C45.0908 54.9872 49.4145 42.0601 49.4145 33.1973C49.4145 27.3301 39.6842 19.4604 39.6842 19.4604H94.6316C100.355 20.0328 109.261 23.4431 110.086 36.6315C111.23 54.9473 91.7698 66.3947 91.7698 66.3947L99.7829 85.8552H74.0263L65.4408 67.5394L59.1448 85.8552ZM69.4474 52.0855L73.454 36.6315H80.8948C81.1356 36.6797 81.3978 36.7157 81.6721 36.7534C83.57 37.0141 86.0461 37.3542 86.0461 42.3552C86.0461 46.9698 83.1842 52.0855 76.3158 52.0855H69.4474Z" fill="white"/>
<path d="M35.1053 85.2828C35.1968 84.8654 35.3008 84.435 35.4173 83.9921C44.2423 48.1178 62.485 25.8708 70.5921 19.4604H87.7632C56.1159 42.2243 39.1897 69.6558 35.4173 83.9921C35.3119 84.4204 35.2079 84.8506 35.1053 85.2828Z" fill="url(#paint1_linear)"/>
<path d="M35.1053 84.7105C35.2496 84.0521 35.4201 83.3521 35.6178 82.614C44.5159 47.2338 62.5459 25.8226 70.5921 19.4604H87.7632C54.6082 37.3467 39.6023 67.7365 35.6178 82.614C35.4434 83.3074 35.2725 84.0063 35.1053 84.7105Z" fill="url(#paint2_linear)"/>
<defs>
<radialGradient id="paint0_radial" cx="0" cy="0" r="1" gradientUnits="userSpaceOnUse" gradientTransform="translate(72.8815 53.2303) rotate(90) scale(53.2303 53.8026)">
<stop stop-color="#770FFE"/>
<stop offset="1" stop-color="#4A0F96"/>
</radialGradient>
<linearGradient id="paint1_linear" x1="78.6053" y1="19.4604" x2="28.2369" y2="106.46" gradientUnits="userSpaceOnUse">
<stop stop-color="#C7C7C7"/>
<stop offset="1" stop-color="white" stop-opacity="0"/>
<stop offset="1" stop-color="white" stop-opacity="0"/>
</linearGradient>
<linearGradient id="paint2_linear" x1="74.5987" y1="14.8815" x2="37.9671" y2="73.2631" gradientUnits="userSpaceOnUse">
<stop stop-color="#770FFE"/>
<stop offset="1" stop-color="#4A0F96"/>
</linearGradient>
</defs>
</svg>
