<svg width="48" height="48" viewBox="0 0 48 48" fill="none" xmlns="http://www.w3.org/2000/svg">
<circle cx="24" cy="24" r="24" fill="#770FFE"/>
<path d="M27.6611 16.0035L25.5024 16C23.0772 16 21.5099 17.6421 21.5099 20.1837V22.1127H19.3394C19.1519 22.1127 19 22.268 19 22.4595V25.2544C19 25.4459 19.1521 25.601 19.3394 25.601H21.5099V32.6534C21.5099 32.8449 21.6618 33 21.8493 33H24.6812C24.8687 33 25.0206 32.8447 25.0206 32.6534V25.601H27.5584C27.7459 25.601 27.8978 25.4459 27.8978 25.2544L27.8989 22.4595C27.8989 22.3675 27.863 22.2795 27.7995 22.2144C27.7359 22.1493 27.6493 22.1127 27.5593 22.1127H25.0206V20.4775C25.0206 19.6915 25.204 19.2925 26.2065 19.2925L27.6607 19.292C27.8481 19.292 28 19.1367 28 18.9454V16.3502C28 16.159 27.8483 16.0039 27.6611 16.0035Z" fill="white"/>
</svg>
