<svg width="306" height="93" viewBox="0 0 306 93" fill="none" xmlns="http://www.w3.org/2000/svg">
<path d="M152.19 42.6587L146.079 34.3387H145.717H139.334V42.6587H132V12.792H145.717C148.523 12.792 150.953 13.2329 153.005 14.1147C155.087 14.9964 156.687 16.248 157.804 17.8693C158.92 19.4907 159.479 21.4107 159.479 23.6293C159.479 25.848 158.905 27.768 157.758 29.3893C156.642 30.9822 155.042 32.2053 152.96 33.0587L160.067 42.6587H152.19ZM152.054 23.6293C152.054 21.9511 151.481 20.6711 150.334 19.7893C149.187 18.8791 147.512 18.424 145.309 18.424H139.334V28.8347H145.309C147.512 28.8347 149.187 28.3796 150.334 27.4693C151.481 26.5591 152.054 25.2791 152.054 23.6293Z" fill="white"/>
<path d="M174.394 19.3627C178.166 19.3627 181.063 20.216 183.085 21.9227C185.107 23.6009 186.118 26.1467 186.118 29.56V42.6587H179.509V39.8C178.181 41.9333 175.706 43 172.085 43C170.214 43 168.584 42.7013 167.196 42.104C165.838 41.5067 164.796 40.6818 164.072 39.6293C163.348 38.5769 162.986 37.3822 162.986 36.0453C162.986 33.912 163.831 32.2338 165.521 31.0107C167.241 29.7876 169.882 29.176 173.443 29.176H179.056C179.056 27.7253 178.589 26.616 177.653 25.848C176.717 25.0516 175.314 24.6533 173.443 24.6533C172.145 24.6533 170.863 24.8524 169.595 25.2507C168.358 25.6204 167.301 26.1324 166.426 26.7867L163.891 22.136C165.219 21.2542 166.803 20.5716 168.644 20.088C170.515 19.6044 172.432 19.3627 174.394 19.3627ZM173.85 38.52C175.058 38.52 176.129 38.264 177.064 37.752C178 37.2116 178.664 36.4293 179.056 35.4053V33.0587H174.212C171.315 33.0587 169.867 33.9547 169.867 35.7467C169.867 36.6 170.214 37.2827 170.908 37.7947C171.632 38.2782 172.613 38.52 173.85 38.52Z" fill="white"/>
<path d="M207.313 19.3627C210.331 19.3627 212.76 20.216 214.601 21.9227C216.473 23.6293 217.408 26.1609 217.408 29.5173V42.6587H210.346V30.5413C210.346 28.7209 209.924 27.3698 209.079 26.488C208.234 25.5778 207.011 25.1227 205.412 25.1227C203.631 25.1227 202.213 25.6489 201.156 26.7013C200.1 27.7253 199.572 29.2613 199.572 31.3093V42.6587H192.51V19.704H199.255V22.392C200.191 21.4249 201.353 20.6853 202.741 20.1733C204.129 19.6329 205.653 19.3627 207.313 19.3627Z" fill="white"/>
<path d="M234.267 33.656L230.872 36.8133V42.6587H223.81V11H230.872V28.92L241.193 19.704H249.613L239.473 29.432L250.519 42.6587H241.963L234.267 33.656Z" fill="white"/>
<path d="M276.491 31.2667C276.491 31.352 276.445 31.9493 276.355 33.0587H257.93C258.262 34.4809 259.047 35.6044 260.284 36.4293C261.521 37.2542 263.061 37.6667 264.902 37.6667C266.169 37.6667 267.286 37.496 268.252 37.1547C269.247 36.7849 270.168 36.216 271.013 35.448L274.77 39.288C272.477 41.7627 269.127 43 264.721 43C261.974 43 259.545 42.5022 257.432 41.5067C255.32 40.4827 253.69 39.0747 252.543 37.2827C251.396 35.4907 250.823 33.4569 250.823 31.1813C250.823 28.9342 251.381 26.9147 252.498 25.1227C253.645 23.3022 255.199 21.8942 257.16 20.8987C259.152 19.8747 261.371 19.3627 263.815 19.3627C266.199 19.3627 268.357 19.8462 270.289 20.8133C272.22 21.7804 273.729 23.1742 274.816 24.9947C275.932 26.7867 276.491 28.8773 276.491 31.2667ZM263.86 24.3973C262.261 24.3973 260.918 24.824 259.831 25.6773C258.745 26.5307 258.081 27.6969 257.84 29.176H269.836C269.595 27.7253 268.931 26.5733 267.844 25.72C266.758 24.8382 265.43 24.3973 263.86 24.3973Z" fill="white"/>
<path d="M306 11V42.6587H299.255V40.0133C297.504 42.0045 294.969 43 291.65 43C289.356 43 287.273 42.5164 285.402 41.5493C283.561 40.5822 282.113 39.2027 281.056 37.4107C280 35.6187 279.472 33.5422 279.472 31.1813C279.472 28.8204 280 26.744 281.056 24.952C282.113 23.16 283.561 21.7804 285.402 20.8133C287.273 19.8462 289.356 19.3627 291.65 19.3627C294.758 19.3627 297.188 20.2871 298.938 22.136V11H306ZM292.872 37.5387C294.652 37.5387 296.131 36.9698 297.308 35.832C298.485 34.6658 299.074 33.1156 299.074 31.1813C299.074 29.2471 298.485 27.7111 297.308 26.5733C296.131 25.4071 294.652 24.824 292.872 24.824C291.061 24.824 289.567 25.4071 288.39 26.5733C287.213 27.7111 286.625 29.2471 286.625 31.1813C286.625 33.1156 287.213 34.6658 288.39 35.832C289.567 36.9698 291.061 37.5387 292.872 37.5387Z" fill="white"/>
<path d="M152.066 67H154.633V76.75C153.452 77.7968 152.054 78.6002 150.439 79.1601C148.824 79.72 147.125 80 145.341 80C142.81 80 140.533 79.4401 138.508 78.3202C136.483 77.2004 134.892 75.6545 133.735 73.6826C132.579 71.6863 132 69.4588 132 67C132 64.5412 132.579 62.3258 133.735 60.3539C134.892 58.3577 136.483 56.7996 138.508 55.6798C140.533 54.5599 142.823 54 145.378 54C147.306 54 149.077 54.3165 150.692 54.9494C152.307 55.5581 153.669 56.471 154.778 57.6882L153.115 59.4045C151.114 57.4082 148.571 56.4101 145.486 56.4101C143.437 56.4101 141.581 56.8727 139.918 57.7978C138.279 58.6985 136.989 59.9644 136.049 61.5955C135.109 63.2022 134.639 65.0037 134.639 67C134.639 68.9963 135.109 70.7978 136.049 72.4045C136.989 74.0112 138.279 75.2772 139.918 76.2022C141.557 77.1273 143.401 77.5899 145.45 77.5899C148.053 77.5899 150.259 76.9326 152.066 75.618V67Z" fill="#A293B6"/>
<path d="M168.316 60.427C170.799 60.427 172.703 61.0599 174.028 62.3258C175.354 63.5674 176.017 65.4176 176.017 67.8764V79.7809H173.558V76.7865C172.98 77.7846 172.124 78.5637 170.991 79.1236C169.883 79.6835 168.557 79.9635 167.014 79.9635C164.893 79.9635 163.206 79.4523 161.953 78.4298C160.699 77.4073 160.072 76.0562 160.072 74.3764C160.072 72.7453 160.651 71.4307 161.808 70.4326C162.989 69.4345 164.857 68.9354 167.412 68.9354H173.45V67.7669C173.45 66.1114 172.992 64.8577 172.076 64.0056C171.16 63.1292 169.822 62.691 168.063 62.691C166.858 62.691 165.701 62.8979 164.592 63.3118C163.483 63.7013 162.531 64.2491 161.736 64.9551L160.579 63.0197C161.543 62.1919 162.7 61.559 164.05 61.1208C165.399 60.6582 166.822 60.427 168.316 60.427ZM167.412 77.9185C168.858 77.9185 170.1 77.5899 171.136 76.9326C172.173 76.2509 172.944 75.2772 173.45 74.0112V70.8708H167.484C164.23 70.8708 162.603 72.015 162.603 74.3034C162.603 75.4232 163.025 76.3118 163.869 76.9691C164.712 77.6021 165.894 77.9185 167.412 77.9185Z" fill="#A293B6"/>
<path d="M206.707 60.427C209.094 60.427 210.962 61.1208 212.312 62.5084C213.685 63.8961 214.372 65.941 214.372 68.6433V79.7809H211.805V68.8989C211.805 66.9026 211.323 65.3811 210.359 64.3343C209.419 63.2875 208.081 62.764 206.346 62.764C204.369 62.764 202.815 63.3848 201.682 64.6264C200.549 65.8436 199.982 67.5356 199.982 69.7022V79.7809H197.415V68.8989C197.415 66.9026 196.933 65.3811 195.969 64.3343C195.029 63.2875 193.679 62.764 191.92 62.764C189.967 62.764 188.413 63.3848 187.256 64.6264C186.123 65.8436 185.556 67.5356 185.556 69.7022V79.7809H182.989V60.573H185.448V64.0787C186.123 62.9101 187.063 62.0094 188.268 61.3764C189.473 60.7434 190.859 60.427 192.426 60.427C194.017 60.427 195.391 60.7678 196.548 61.4494C197.729 62.1311 198.609 63.1414 199.187 64.4803C199.886 63.2144 200.886 62.2285 202.188 61.5225C203.514 60.7921 205.02 60.427 206.707 60.427Z" fill="#A293B6"/>
<path d="M237.964 70.9803H222.055C222.2 72.9766 222.959 74.5955 224.333 75.8371C225.707 77.0543 227.443 77.6629 229.54 77.6629C230.721 77.6629 231.805 77.456 232.794 77.0421C233.782 76.6039 234.638 75.971 235.361 75.1433L236.807 76.823C235.963 77.8455 234.903 78.6245 233.625 79.1601C232.372 79.6957 230.986 79.9635 229.467 79.9635C227.515 79.9635 225.779 79.5496 224.261 78.7219C222.766 77.8699 221.597 76.7013 220.754 75.2163C219.91 73.7313 219.488 72.0515 219.488 70.177C219.488 68.3024 219.886 66.6227 220.681 65.1376C221.501 63.6526 222.61 62.4963 224.008 61.6685C225.43 60.8408 227.021 60.427 228.78 60.427C230.54 60.427 232.119 60.8408 233.517 61.6685C234.915 62.4963 236.011 63.6526 236.807 65.1376C237.602 66.5983 238 68.2781 238 70.177L237.964 70.9803ZM228.78 62.6545C226.948 62.6545 225.406 63.2509 224.152 64.4438C222.923 65.6124 222.224 67.1461 222.055 69.0449H235.541C235.373 67.1461 234.662 65.6124 233.408 64.4438C232.179 63.2509 230.636 62.6545 228.78 62.6545Z" fill="#A293B6"/>
<path d="M0 9C0 4.02944 4.02944 0 9 0H85C89.9706 0 94 4.02944 94 9V84C94 88.9706 89.9706 93 85 93H9C4.02944 93 0 88.9706 0 84V9Z" fill="url(#paint0_radial)"/>
<path fill-rule="evenodd" clip-rule="evenodd" d="M85 3H9C5.68629 3 3 5.68629 3 9V84C3 87.3137 5.68629 90 9 90H85C88.3137 90 91 87.3137 91 84V9C91 5.68629 88.3137 3 85 3ZM9 0C4.02944 0 0 4.02944 0 9V84C0 88.9706 4.02944 93 9 93H85C89.9706 93 94 88.9706 94 84V9C94 4.02944 89.9706 0 85 0H9Z" fill="#770FFE"/>
<path fill-rule="evenodd" clip-rule="evenodd" d="M35 75H14C15.3615 70.0441 17.1679 64.6432 18.9831 59.2162C22.723 48.0348 26.5 36.7422 26.5 29C26.5 23.8746 18 17 18 17H66C71 17.5 78.7799 20.4791 79.5 32C80.5 48 63.5 58 63.5 58L70.5 75H48L40.5 59L35 75ZM44 45.5L47.5 32H54C54.2104 32.0421 54.4395 32.0735 54.679 32.1065C56.337 32.3342 58.5 32.6313 58.5 37C58.5 41.0311 56 45.5 50 45.5H44Z" fill="white"/>
<path d="M14 74.5C14.0799 74.1354 14.1708 73.7594 14.2726 73.3725C21.9818 42.034 37.9179 22.5998 45 17H60C32.3541 36.8856 17.568 60.8488 14.2726 73.3725C14.1805 73.7466 14.0897 74.1225 14 74.5Z" fill="url(#paint1_linear)"/>
<path d="M14 74C14.1261 73.4249 14.275 72.8134 14.4477 72.1686C22.2208 41.2617 37.9711 22.5577 45 17H60C31.037 32.6248 17.9284 59.1721 14.4477 72.1686C14.2954 72.7744 14.1461 73.3848 14 74Z" fill="url(#paint2_linear)"/>
<defs>
<radialGradient id="paint0_radial" cx="0" cy="0" r="1" gradientUnits="userSpaceOnUse" gradientTransform="translate(47 46.5) rotate(90) scale(46.5 47)">
<stop stop-color="#770FFE"/>
<stop offset="1" stop-color="#4A0F96"/>
</radialGradient>
<linearGradient id="paint1_linear" x1="52" y1="17" x2="8" y2="93" gradientUnits="userSpaceOnUse">
<stop stop-color="#C7C7C7"/>
<stop offset="1" stop-color="white" stop-opacity="0"/>
<stop offset="1" stop-color="white" stop-opacity="0"/>
</linearGradient>
<linearGradient id="paint2_linear" x1="48.5" y1="13" x2="16.5" y2="64" gradientUnits="userSpaceOnUse">
<stop stop-color="#770FFE"/>
<stop offset="1" stop-color="#4A0F96"/>
</linearGradient>
</defs>
</svg>
