<svg width="48" height="48" viewBox="0 0 48 48" fill="none" xmlns="http://www.w3.org/2000/svg">
<circle cx="24" cy="24" r="24" fill="#770FFE"/>
<path d="M21.7409 23.1504C21.1871 23.1504 20.75 23.6361 20.75 24.2287C20.75 24.8212 21.1969 25.307 21.7409 25.307C22.2946 25.307 22.7317 24.8212 22.7317 24.2287C22.7414 23.6361 22.2946 23.1504 21.7409 23.1504ZM25.2866 23.1504C24.7329 23.1504 24.2957 23.6361 24.2957 24.2287C24.2957 24.8212 24.7426 25.307 25.2866 25.307C25.8403 25.307 26.2774 24.8212 26.2774 24.2287C26.2774 23.6361 25.8403 23.1504 25.2866 23.1504Z" fill="white"/>
<path d="M30.0086 15H16.9914C15.8937 15 15 15.8937 15 17.0011V30.1349C15 31.2423 15.8937 32.136 16.9914 32.136H28.0074L27.4926 30.3389L28.736 31.4949L29.9114 32.5829L32 34.4286V17.0011C32 15.8937 31.1063 15 30.0086 15ZM26.2589 27.6869C26.2589 27.6869 25.9091 27.2691 25.6177 26.9C26.8903 26.5406 27.376 25.744 27.376 25.744C26.9777 26.0063 26.5989 26.1909 26.2589 26.3171C25.7731 26.5211 25.3069 26.6571 24.8503 26.7349C23.9177 26.9097 23.0629 26.8611 22.3343 26.7251C21.7806 26.6183 21.3046 26.4629 20.9063 26.3074C20.6829 26.22 20.44 26.1131 20.1971 25.9771C20.168 25.9577 20.1389 25.948 20.1097 25.9286C20.0903 25.9189 20.0806 25.9091 20.0709 25.8994C19.896 25.8023 19.7989 25.7343 19.7989 25.7343C19.7989 25.7343 20.2651 26.5114 21.4989 26.8806C21.2074 27.2497 20.848 27.6869 20.848 27.6869C18.7011 27.6189 17.8851 26.2103 17.8851 26.2103C17.8851 23.0823 19.284 20.5469 19.284 20.5469C20.6829 19.4977 22.0137 19.5269 22.0137 19.5269L22.1109 19.6434C20.3623 20.1486 19.556 20.916 19.556 20.916C19.556 20.916 19.7697 20.7994 20.1291 20.6343C21.1686 20.1777 21.9943 20.0514 22.3343 20.0223C22.3926 20.0126 22.4411 20.0029 22.4994 20.0029C23.092 19.9251 23.7623 19.9057 24.4617 19.9834C25.3846 20.0903 26.3754 20.3623 27.3857 20.916C27.3857 20.916 26.6183 20.1874 24.9669 19.6823L25.1029 19.5269C25.1029 19.5269 26.4337 19.4977 27.8326 20.5469C27.8326 20.5469 29.2314 23.0823 29.2314 26.2103C29.2314 26.2103 28.4057 27.6189 26.2589 27.6869Z" fill="white"/>
</svg>
