<svg width="48" height="48" viewBox="0 0 48 48" fill="none" xmlns="http://www.w3.org/2000/svg">
<circle cx="24" cy="24" r="24" fill="#770FFE"/>
<path d="M34 24.8096V31H30.142V25.2242C30.142 23.7733 29.584 22.783 28.1875 22.783C27.1215 22.783 26.4871 23.4504 26.208 24.0959C26.1063 24.3267 26.0801 24.6479 26.0801 24.9709V31H22.2208C22.2208 31 22.2728 21.2177 22.2208 20.2041H26.0797V21.7344C26.0719 21.7459 26.0617 21.7582 26.0543 21.7693H26.0797V21.7344C26.5924 20.9999 27.508 19.9505 29.5574 19.9505C32.0965 19.9505 34 21.4935 34 24.8096ZM18.1838 15C16.8636 15 16 15.8056 16 16.8649C16 17.9012 16.8386 18.7312 18.1326 18.7312H18.1584C19.5042 18.7312 20.3412 17.9013 20.3412 16.8649C20.3158 15.8056 19.5042 15 18.1838 15ZM16.2292 31H20.087V20.2041H16.2292V31Z" fill="white"/>
</svg>
