<svg width="189" height="61" viewBox="0 0 189 61" fill="none" xmlns="http://www.w3.org/2000/svg">
<path d="M0 0H60.2717V60.2717H0V0Z" fill="#770FFE"/>
<path d="M40.58 9.40332L19.1914 31.3334V19.1936L28.9135 9.40332H40.58Z" fill="white"/>
<path d="M24.8438 52.1672L24.8437 43.9146L47.3508 43.9146L47.3508 52.1672L24.8438 52.1672Z" fill="white"/>
<path d="M40.2236 36.7874H48.4762V52.1672H40.2236V36.7874Z" fill="white"/>
<path d="M48.4766 30.0349L48.4766 38.2875L37.5981 38.2875L37.5981 30.0349L48.4766 30.0349Z" fill="white"/>
<path fill-rule="evenodd" clip-rule="evenodd" d="M33.0964 23.6575L24.8438 32.119V51.9679H33.0964V23.6575Z" fill="white"/>
<path d="M12.0908 9.40479H20.3434V52.1683H12.0908V9.40479Z" fill="white"/>
<path d="M93.1788 27.9952L89.3715 22.7562H89.1459H85.1693V27.9952H80.6006V9.18847H89.1459C90.8944 9.18847 92.4079 9.46609 93.6864 10.0213C94.9837 10.5766 95.9802 11.3647 96.6759 12.3856C97.3715 13.4066 97.7193 14.6156 97.7193 16.0126C97.7193 17.4097 97.3621 18.6187 96.6476 19.6397C95.952 20.6427 94.9555 21.4129 93.6582 21.9502L98.086 27.9952H93.1788ZM93.0942 16.0126C93.0942 14.9559 92.7369 14.1499 92.0225 13.5946C91.308 13.0215 90.2645 12.7349 88.892 12.7349H85.1693V19.2904H88.892C90.2645 19.2904 91.308 19.0038 92.0225 18.4307C92.7369 17.8575 93.0942 17.0515 93.0942 16.0126Z" fill="white"/>
<path d="M107.011 13.326C109.361 13.326 111.166 13.8633 112.426 14.938C113.686 15.9947 114.315 17.5978 114.315 19.7471V27.9952H110.198V26.1952C109.371 27.5385 107.829 28.2102 105.573 28.2102C104.407 28.2102 103.392 28.0221 102.527 27.646C101.681 27.2698 101.032 26.7504 100.581 26.0877C100.13 25.425 99.9041 24.6727 99.9041 23.8309C99.9041 22.4875 100.431 21.4308 101.483 20.6606C102.555 19.8904 104.2 19.5053 106.419 19.5053H109.916C109.916 18.5919 109.624 17.8933 109.042 17.4097C108.459 16.9082 107.585 16.6574 106.419 16.6574C105.61 16.6574 104.811 16.7828 104.022 17.0336C103.251 17.2664 102.593 17.5888 102.047 18.0008L100.468 15.0723C101.295 14.5171 102.283 14.0872 103.429 13.7827C104.595 13.4782 105.789 13.326 107.011 13.326ZM106.673 25.3892C107.425 25.3892 108.092 25.228 108.675 24.9056C109.258 24.5652 109.671 24.0727 109.916 23.4279V21.9502H106.898C105.093 21.9502 104.191 22.5144 104.191 23.6428C104.191 24.1802 104.407 24.61 104.84 24.9324C105.291 25.2369 105.902 25.3892 106.673 25.3892Z" fill="white"/>
<path d="M127.519 13.326C129.4 13.326 130.913 13.8633 132.06 14.938C133.226 16.0126 133.808 17.6067 133.808 19.7203V27.9952H129.409V20.3651C129.409 19.2187 129.146 18.368 128.619 17.8127C128.093 17.2396 127.331 16.953 126.335 16.953C125.226 16.953 124.342 17.2843 123.684 17.9471C123.026 18.5919 122.697 19.5591 122.697 20.8487V27.9952H118.297V13.5409H122.499V15.2335C123.082 14.6245 123.806 14.1588 124.671 13.8364C125.536 13.4961 126.485 13.326 127.519 13.326Z" fill="white"/>
<path d="M144.311 22.3263L142.196 24.3145V27.9952H137.796V8.06006H142.196V19.3441L148.626 13.5409H153.872L147.554 19.6665L154.436 27.9952H149.106L144.311 22.3263Z" fill="white"/>
<path d="M170.616 20.8218C170.616 20.8755 170.588 21.2517 170.531 21.9502H159.053C159.26 22.8458 159.749 23.5533 160.52 24.0727C161.29 24.5921 162.249 24.8518 163.396 24.8518C164.186 24.8518 164.881 24.7444 165.483 24.5294C166.104 24.2966 166.677 23.9384 167.203 23.4548L169.544 25.8728C168.115 27.431 166.028 28.2102 163.283 28.2102C161.572 28.2102 160.059 27.8967 158.743 27.2698C157.427 26.625 156.411 25.7384 155.697 24.61C154.982 23.4816 154.625 22.201 154.625 20.7681C154.625 19.3531 154.973 18.0814 155.669 16.953C156.383 15.8067 157.351 14.9201 158.574 14.2932C159.814 13.6484 161.196 13.326 162.719 13.326C164.205 13.326 165.549 13.6304 166.752 14.2394C167.956 14.8484 168.896 15.7261 169.572 16.8724C170.268 18.0008 170.616 19.3173 170.616 20.8218ZM162.747 16.4962C161.751 16.4962 160.914 16.7649 160.237 17.3022C159.561 17.8396 159.147 18.5739 158.997 19.5053H166.47C166.32 18.5919 165.906 17.8665 165.229 17.3291C164.552 16.7739 163.725 16.4962 162.747 16.4962Z" fill="white"/>
<path d="M189 8.06006V27.9952H184.798V26.3295C183.707 27.5833 182.128 28.2102 180.06 28.2102C178.631 28.2102 177.333 27.9057 176.168 27.2967C175.021 26.6877 174.118 25.819 173.46 24.6906C172.802 23.5622 172.473 22.2547 172.473 20.7681C172.473 19.2814 172.802 17.9739 173.46 16.8455C174.118 15.7171 175.021 14.8484 176.168 14.2394C177.333 13.6304 178.631 13.326 180.06 13.326C181.996 13.326 183.51 13.9081 184.6 15.0723V8.06006H189ZM180.821 24.7712C181.93 24.7712 182.852 24.413 183.585 23.6966C184.318 22.9622 184.685 21.986 184.685 20.7681C184.685 19.5501 184.318 18.5829 183.585 17.8665C182.852 17.1321 181.93 16.7649 180.821 16.7649C179.693 16.7649 178.762 17.1321 178.029 17.8665C177.296 18.5829 176.929 19.5501 176.929 20.7681C176.929 21.986 177.296 22.9622 178.029 23.6966C178.762 24.413 179.693 24.7712 180.821 24.7712Z" fill="white"/>
<path d="M91.2225 41.5H92.5302V46.375C91.9285 46.8984 91.2163 47.3001 90.3936 47.5801C89.5709 47.86 88.7052 48 87.7966 48C86.5072 48 85.3468 47.72 84.3154 47.1601C83.2839 46.6002 82.4735 45.8272 81.8841 44.8413C81.2947 43.8432 81 42.7294 81 41.5C81 40.2706 81.2947 39.1629 81.8841 38.177C82.4735 37.1788 83.2839 36.3998 84.3154 35.8399C85.3468 35.28 86.5134 35 87.815 35C88.7973 35 89.6998 35.1582 90.5225 35.4747C91.3452 35.779 92.039 36.2355 92.6039 36.8441L91.7566 37.7022C90.7374 36.7041 89.442 36.2051 87.8702 36.2051C86.8265 36.2051 85.881 36.4363 85.0337 36.8989C84.1987 37.3493 83.5418 37.9822 83.0629 38.7978C82.584 39.6011 82.3446 40.5019 82.3446 41.5C82.3446 42.4981 82.584 43.3989 83.0629 44.2022C83.5418 45.0056 84.1987 45.6386 85.0337 46.1011C85.8687 46.5637 86.8081 46.7949 87.8518 46.7949C89.178 46.7949 90.3015 46.4663 91.2225 45.809V41.5Z" fill="#A293B6"/>
<path d="M99.5006 38.2135C100.765 38.2135 101.735 38.53 102.411 39.1629C103.086 39.7837 103.424 40.7088 103.424 41.9382V47.8905H102.171V46.3933C101.877 46.8923 101.441 47.2818 100.864 47.5618C100.299 47.8418 99.6234 47.9817 98.8375 47.9817C97.7569 47.9817 96.8974 47.7261 96.2589 47.2149C95.6203 46.7037 95.3011 46.0281 95.3011 45.1882C95.3011 44.3727 95.5958 43.7154 96.1852 43.2163C96.7869 42.7172 97.7385 42.4677 99.0401 42.4677H102.116V41.8834C102.116 41.0557 101.883 40.4288 101.416 40.0028C100.95 39.5646 100.268 39.3455 99.3716 39.3455C98.7577 39.3455 98.1683 39.449 97.6034 39.6559C97.0386 39.8507 96.5536 40.1245 96.1483 40.4775L95.5589 39.5098C96.0501 39.096 96.6395 38.7795 97.3271 38.5604C98.0148 38.3291 98.7393 38.2135 99.5006 38.2135ZM99.0401 46.9593C99.7768 46.9593 100.409 46.7949 100.937 46.4663C101.465 46.1255 101.858 45.6386 102.116 45.0056V43.4354H99.0769C97.4192 43.4354 96.5904 44.0075 96.5904 45.1517C96.5904 45.7116 96.8053 46.1559 97.2351 46.4846C97.6648 46.801 98.2665 46.9593 99.0401 46.9593Z" fill="#A293B6"/>
<path d="M119.058 38.2135C120.274 38.2135 121.226 38.5604 121.913 39.2542C122.613 39.948 122.963 40.9705 122.963 42.3216V47.8905H121.656V42.4494C121.656 41.4513 121.41 40.6905 120.919 40.1671C120.44 39.6437 119.758 39.382 118.874 39.382C117.867 39.382 117.075 39.6924 116.498 40.3132C115.921 40.9218 115.633 41.7678 115.633 42.8511V47.8905H114.325V42.4494C114.325 41.4513 114.079 40.6905 113.588 40.1671C113.109 39.6437 112.422 39.382 111.525 39.382C110.531 39.382 109.739 39.6924 109.149 40.3132C108.572 40.9218 108.283 41.7678 108.283 42.8511V47.8905H106.976V38.2865H108.228V40.0393C108.572 39.4551 109.051 39.0047 109.665 38.6882C110.279 38.3717 110.985 38.2135 111.783 38.2135C112.593 38.2135 113.293 38.3839 113.883 38.7247C114.484 39.0655 114.933 39.5707 115.227 40.2402C115.583 39.6072 116.093 39.1142 116.756 38.7612C117.431 38.3961 118.199 38.2135 119.058 38.2135Z" fill="#A293B6"/>
<path d="M134.982 43.4902H126.877C126.951 44.4883 127.338 45.2978 128.038 45.9185C128.738 46.5272 129.622 46.8315 130.69 46.8315C131.292 46.8315 131.844 46.728 132.348 46.5211C132.851 46.302 133.287 45.9855 133.655 45.5716L134.392 46.4115C133.962 46.9228 133.422 47.3123 132.771 47.5801C132.133 47.8478 131.427 47.9817 130.653 47.9817C129.659 47.9817 128.774 47.7748 128.001 47.361C127.24 46.9349 126.644 46.3507 126.214 45.6081C125.784 44.8656 125.57 44.0258 125.57 43.0885C125.57 42.1512 125.772 41.3113 126.177 40.5688C126.595 39.8263 127.16 39.2481 127.872 38.8343C128.596 38.4204 129.407 38.2135 130.303 38.2135C131.2 38.2135 132.004 38.4204 132.716 38.8343C133.428 39.2481 133.987 39.8263 134.392 40.5688C134.797 41.2992 135 42.139 135 43.0885L134.982 43.4902ZM130.303 39.3272C129.37 39.3272 128.584 39.6255 127.946 40.2219C127.319 40.8062 126.963 41.573 126.877 42.5225H133.748C133.662 41.573 133.299 40.8062 132.661 40.2219C132.035 39.6255 131.249 39.3272 130.303 39.3272Z" fill="#A293B6"/>
</svg>
