<svg width="190" height="253" viewBox="0 0 190 253" fill="none" xmlns="http://www.w3.org/2000/svg">
<path d="M28.8665 0H160.642V131.776H28.8665V0Z" fill="#770FFE"/>
<path d="M117.589 20.5591L70.8252 68.5063V41.9641L92.0812 20.5591H117.589Z" fill="white"/>
<path d="M83.1847 114.057L83.1847 96.0135L132.393 96.0135L132.393 114.057L83.1847 114.057Z" fill="white"/>
<path d="M116.811 80.4307H134.854V114.057H116.811V80.4307Z" fill="white"/>
<path d="M134.854 65.6665L134.854 83.7097L111.07 83.7097L111.07 65.6665L134.854 65.6665Z" fill="white"/>
<path fill-rule="evenodd" clip-rule="evenodd" d="M101.228 51.7241L83.1847 70.2241V113.621H101.228V51.7241Z" fill="white"/>
<path d="M55.2998 20.5593H73.343V114.056H55.2998V20.5593Z" fill="white"/>
<path d="M22.0468 205.627L15.3734 196.527H14.978H8.00803V205.627H0V172.96H14.978C18.0428 172.96 20.6957 173.442 22.9366 174.407C25.2105 175.371 26.9571 176.74 28.1764 178.513C29.3957 180.287 30.0054 182.387 30.0054 184.813C30.0054 187.24 29.3793 189.34 28.127 191.113C26.9076 192.856 25.161 194.193 22.8872 195.127L30.648 205.627H22.0468ZM21.8985 184.813C21.8985 182.978 21.2724 181.578 20.0201 180.613C18.7678 179.618 16.9388 179.12 14.5331 179.12H8.00803V190.507H14.5331C16.9388 190.507 18.7678 190.009 20.0201 189.013C21.2724 188.018 21.8985 186.618 21.8985 184.813Z" fill="white"/>
<path d="M46.2918 180.147C50.4112 180.147 53.5748 181.08 55.7828 182.947C57.9908 184.782 59.0948 187.567 59.0948 191.3V205.627H51.8777V202.5C50.4276 204.833 47.7253 206 43.7708 206C41.7276 206 39.948 205.673 38.4321 205.02C36.9491 204.367 35.8122 203.464 35.0212 202.313C34.2303 201.162 33.8349 199.856 33.8349 198.393C33.8349 196.06 34.7576 194.224 36.6031 192.887C38.4815 191.549 41.3651 190.88 45.2537 190.88H51.3833C51.3833 189.293 50.8725 188.08 49.8509 187.24C48.8293 186.369 47.2969 185.933 45.2537 185.933C43.8367 185.933 42.4361 186.151 41.052 186.587C39.7008 186.991 38.5474 187.551 37.5917 188.267L34.8235 183.18C36.2735 182.216 38.0037 181.469 40.0139 180.94C42.0571 180.411 44.1497 180.147 46.2918 180.147ZM45.6986 201.1C47.0168 201.1 48.1867 200.82 49.2083 200.26C50.2299 199.669 50.9549 198.813 51.3833 197.693V195.127H46.0941C42.9304 195.127 41.3486 196.107 41.3486 198.067C41.3486 199 41.7276 199.747 42.4855 200.307C43.2764 200.836 44.3475 201.1 45.6986 201.1Z" fill="white"/>
<path d="M82.2384 180.147C85.5338 180.147 88.1867 181.08 90.197 182.947C92.2402 184.813 93.2618 187.582 93.2618 191.253V205.627H85.5503V192.373C85.5503 190.382 85.089 188.904 84.1662 187.94C83.2435 186.944 81.9088 186.447 80.1622 186.447C78.2179 186.447 76.669 187.022 75.5156 188.173C74.3622 189.293 73.7854 190.973 73.7854 193.213V205.627H66.074V180.52H73.4394V183.46C74.461 182.402 75.7298 181.593 77.2457 181.033C78.7616 180.442 80.4258 180.147 82.2384 180.147Z" fill="white"/>
<path d="M111.671 195.78L107.963 199.233V205.627H100.252V171H107.963V190.6L119.234 180.52H128.428L117.355 191.16L129.417 205.627H120.074L111.671 195.78Z" fill="white"/>
<path d="M157.777 193.167C157.777 193.26 157.728 193.913 157.629 195.127H137.51C137.872 196.682 138.729 197.911 140.08 198.813C141.431 199.716 143.112 200.167 145.122 200.167C146.507 200.167 147.726 199.98 148.78 199.607C149.868 199.202 150.873 198.58 151.796 197.74L155.899 201.94C153.394 204.647 149.736 206 144.925 206C141.926 206 139.273 205.456 136.966 204.367C134.659 203.247 132.88 201.707 131.627 199.747C130.375 197.787 129.749 195.562 129.749 193.073C129.749 190.616 130.359 188.407 131.578 186.447C132.83 184.456 134.527 182.916 136.67 181.827C138.845 180.707 141.267 180.147 143.936 180.147C146.539 180.147 148.896 180.676 151.005 181.733C153.114 182.791 154.762 184.316 155.948 186.307C157.167 188.267 157.777 190.553 157.777 193.167ZM143.985 185.653C142.239 185.653 140.772 186.12 139.586 187.053C138.4 187.987 137.675 189.262 137.411 190.88H150.511C150.247 189.293 149.522 188.033 148.336 187.1C147.149 186.136 145.699 185.653 143.985 185.653Z" fill="white"/>
<path d="M190 171V205.627H182.635V202.733C180.723 204.911 177.955 206 174.33 206C171.825 206 169.552 205.471 167.508 204.413C165.498 203.356 163.916 201.847 162.763 199.887C161.609 197.927 161.033 195.656 161.033 193.073C161.033 190.491 161.609 188.22 162.763 186.26C163.916 184.3 165.498 182.791 167.508 181.733C169.552 180.676 171.825 180.147 174.33 180.147C177.724 180.147 180.377 181.158 182.289 183.18V171H190ZM175.665 200.027C177.609 200.027 179.224 199.404 180.509 198.16C181.794 196.884 182.437 195.189 182.437 193.073C182.437 190.958 181.794 189.278 180.509 188.033C179.224 186.758 177.609 186.12 175.665 186.12C173.687 186.12 172.056 186.758 170.771 188.033C169.486 189.278 168.843 190.958 168.843 193.073C168.843 195.189 169.486 196.884 170.771 198.16C172.056 199.404 173.687 200.027 175.665 200.027Z" fill="white"/>
<path d="M61.0128 240H63.701V249.75C62.4642 250.797 61.0002 251.6 59.3091 252.16C57.618 252.72 55.8385 253 53.9707 253C51.3204 253 48.9352 252.44 46.815 251.32C44.6948 250.2 43.0289 248.654 41.8173 246.683C40.6058 244.686 40 242.459 40 240C40 237.541 40.6058 235.326 41.8173 233.354C43.0289 231.358 44.6948 229.8 46.815 228.68C48.9352 227.56 51.3331 227 54.0086 227C56.0278 227 57.883 227.316 59.5741 227.949C61.2652 228.558 62.6913 229.471 63.8524 230.688L62.1108 232.404C60.0158 230.408 57.3529 229.41 54.1221 229.41C51.9767 229.41 50.0332 229.873 48.2916 230.798C46.5752 231.699 45.2248 232.964 44.2404 234.596C43.2561 236.202 42.7639 238.004 42.7639 240C42.7639 241.996 43.2561 243.798 44.2404 245.404C45.2248 247.011 46.5752 248.277 48.2916 249.202C50.0079 250.127 51.9388 250.59 54.0843 250.59C56.8103 250.59 59.1198 249.933 61.0128 248.618V240Z" fill="#A293B6"/>
<path d="M78.029 233.427C80.6287 233.427 82.6227 234.06 84.011 235.326C85.3992 236.567 86.0933 238.418 86.0933 240.876V252.781H83.5188V249.787C82.913 250.785 82.017 251.564 80.8307 252.124C79.6696 252.684 78.2814 252.963 76.666 252.963C74.4448 252.963 72.6779 252.452 71.3654 251.43C70.0529 250.407 69.3966 249.056 69.3966 247.376C69.3966 245.745 70.0024 244.431 71.214 243.433C72.4508 242.434 74.4069 241.935 77.0824 241.935H83.4052V240.767C83.4052 239.111 82.9256 237.858 81.9665 237.006C81.0074 236.129 79.6065 235.691 77.7639 235.691C76.5019 235.691 75.2903 235.898 74.1293 236.312C72.9682 236.701 71.9712 237.249 71.1383 237.955L69.9267 236.02C70.9363 235.192 72.1479 234.559 73.5614 234.121C74.9748 233.658 76.464 233.427 78.029 233.427ZM77.0824 250.919C78.5969 250.919 79.8967 250.59 80.9821 249.933C82.0674 249.251 82.8751 248.277 83.4052 247.011V243.871H77.1582C73.7507 243.871 72.0469 245.015 72.0469 247.303C72.0469 248.423 72.4886 249.312 73.3721 249.969C74.2555 250.602 75.4923 250.919 77.0824 250.919Z" fill="#A293B6"/>
<path d="M118.231 233.427C120.73 233.427 122.686 234.121 124.1 235.508C125.538 236.896 126.258 238.941 126.258 241.643V252.781H123.57V241.899C123.57 239.903 123.065 238.381 122.055 237.334C121.071 236.287 119.67 235.764 117.853 235.764C115.783 235.764 114.155 236.385 112.969 237.626C111.782 238.844 111.189 240.536 111.189 242.702V252.781H108.501V241.899C108.501 239.903 107.996 238.381 106.987 237.334C106.002 236.287 104.589 235.764 102.746 235.764C100.702 235.764 99.0737 236.385 97.8622 237.626C96.6758 238.844 96.0827 240.536 96.0827 242.702V252.781H93.3946V233.573H95.9691V237.079C96.6758 235.91 97.6602 235.009 98.9223 234.376C100.184 233.743 101.636 233.427 103.276 233.427C104.942 233.427 106.381 233.768 107.592 234.449C108.829 235.131 109.751 236.141 110.356 237.48C111.088 236.214 112.136 235.228 113.499 234.522C114.887 233.792 116.465 233.427 118.231 233.427Z" fill="#A293B6"/>
<path d="M150.962 243.98H134.303C134.455 245.977 135.25 247.596 136.689 248.837C138.127 250.054 139.945 250.663 142.141 250.663C143.377 250.663 144.513 250.456 145.548 250.042C146.583 249.604 147.479 248.971 148.236 248.143L149.751 249.823C148.867 250.846 147.757 251.625 146.419 252.16C145.106 252.696 143.655 252.963 142.065 252.963C140.02 252.963 138.203 252.55 136.613 251.722C135.048 250.87 133.824 249.701 132.94 248.216C132.057 246.731 131.615 245.052 131.615 243.177C131.615 241.302 132.032 239.623 132.865 238.138C133.723 236.653 134.884 235.496 136.348 234.669C137.837 233.841 139.503 233.427 141.345 233.427C143.188 233.427 144.841 233.841 146.305 234.669C147.769 235.496 148.918 236.653 149.751 238.138C150.584 239.598 151 241.278 151 243.177L150.962 243.98ZM141.345 235.654C139.427 235.654 137.812 236.251 136.499 237.444C135.212 238.612 134.48 240.146 134.303 242.045H148.425C148.249 240.146 147.504 238.612 146.192 237.444C144.904 236.251 143.289 235.654 141.345 235.654Z" fill="#A293B6"/>
</svg>
